# xmcd CD database file
#
# Track frame offsets:
#	150
#	29618
#	63593
#	93336
#	116768
#	146142
#	176096
#	210698
#
# Disc length: 3237 seconds
#
# Revision: 1
# Processed by: cddbd v1.5.2PL0 Copyright (c) Steve Scherf et al.
# Submitted via: CDex 1.77
#
DISCID=7a0ca308
DTITLE=Katie Hope - Tai Chi - The Art of Wellbeing
DYEAR=2002
DGENRE=New Age
TTITLE0=Open Your Mind
TTITLE1=Shining
TTITLE2=Searching for the Spirit
TTITLE3=Tai Chi San Shou
TTITLE4=Expand
TTITLE5=The Tao of Dreams
TTITLE6=Beyond the Clouds
TTITLE7=Discovering the Spirit
EXTD=YEAR: 2002
EXTT0=
EXTT1=
EXTT2=
EXTT3=
EXTT4=
EXTT5=
EXTT6=
EXTT7=
PLAYORDER=
